<svg width="6" height="6">
    <line x1="0.5" y1="0.5" x2="1" y2="0.5" stroke="green" stroke-width="0.2" />
    <line x1="0.5" y1="1.5" x2="1" y2="1.5" stroke="green" stroke-width="0.2" />
    <line x1="0.5" y1="2.5" x2="1" y2="2.5" stroke="green" stroke-width="0.2" />
    <line x1="0.5" y1="3.5" x2="1" y2="3.5" stroke="green" stroke-width="0.2" />
    <line x1="0.5" y1="4.5" x2="1" y2="4.5" stroke="green" stroke-width="0.2" />

    
    <circle fill="green" cx="0.5" cy="0.5" r="0.1" />
    <circle fill="green" cx="0.5" cy="1.5" r="0.1" />
    <circle fill="green" cx="0.5" cy="2.5" r="0.1" />
    <circle fill="green" cx="0.5" cy="3.5" r="0.1" />
    <circle fill="green" cx="0.5" cy="4.5" r="0.1" />

    <circle fill="green" cx="4.5" cy="2.5" r="0.1" />

    <path d="
        M 4.5 2.5
        Q 3 0 0.25 0
        C 1.3 1 1.3 4 0.25 5
        Q 3 5 4.5 2.5
        Z
    " fill="white" />
    <path d="
        M 0.25 0
        Q 3 0 4.5 2.5
        Q 3 5 0.25 5
    " fill="transparent" stroke="black" stroke-width="0.15" />

    <path d="
        M 0.25 0
        L 0.22 0
        C 1.3 1 1.3 4 0.22 5.025
        L 0.25 5.025
    " fill="transparent" stroke="black" stroke-width="0.1" />

</svg>